<svg xmlns="http://www.w3.org/2000/svg" width="240.262" height="44.27" viewBox="198 6799.865 240.262 44.27"><g data-name="logo"><path d="M241.148 6838.54c1.496 1.475 1.496 2.96 0 4.457-1.497 1.496-2.982 1.496-4.457 0l-17.891-17.86h-14.478v15.805c0 2.108-1.054 3.161-3.16 3.161-2.108 0-3.162-1.053-3.162-3.16v-37.902c0-2.107 1.054-3.16 3.161-3.16s3.161 1.053 3.161 3.16v15.805H218.8l17.89-17.86c1.476-1.495 2.961-1.495 4.458 0 1.496 1.497 1.496 2.983 0 4.458l-16.469 16.532 16.47 16.564Z" fill="#20404a" fill-rule="evenodd" data-name="Path 118"/><path d="M252.21 6803.026c0-2.107 1.054-3.161 3.162-3.161 2.107 0 3.16 1.054 3.16 3.161v37.932c0 2.108-1.053 3.161-3.16 3.161-2.108 0-3.161-1.053-3.161-3.16v-37.933Z" fill="#20404a" fill-rule="evenodd" data-name="Path 119"/><path d="M307.582 6801.034c1.475-1.496 2.96-1.496 4.457 0 1.496 1.497 1.496 2.983 0 4.457l-37.11 37.016c-.78.97-1.77 1.507-2.972 1.612-2.023-.02-3.046-1.043-3.066-3.066v-38.027c0-2.107 1.053-3.161 3.16-3.161 2.108 0 3.162 1.054 3.162 3.161v30.314l32.369-32.306Z" fill="#20404a" fill-rule="evenodd" data-name="Path 120"/><path d="M323.101 6840.958v-37.932c0-2.107 1.054-3.161 3.161-3.161s3.161 1.054 3.161 3.161v34.771h34.772c2.106 0 3.16 1.054 3.16 3.161 0 2.108-1.054 3.161-3.16 3.161h-37.933c-2.107 0-3.16-1.053-3.16-3.16Z" fill="#20404a" fill-rule="evenodd" data-name="Path 122"/><path d="M377.312 6803.026c0-2.107 1.053-3.161 3.161-3.161 2.107 0 3.16 1.054 3.16 3.161v37.932c0 2.108-1.053 3.161-3.16 3.161-2.108 0-3.161-1.053-3.161-3.16v-37.933Z" fill="#20404a" fill-rule="evenodd" data-name="Path 123"/><path d="M437.14 6838.556c1.496 1.475 1.496 2.96 0 4.457-1.497 1.496-2.982 1.496-4.457 0l-17.891-17.86h-14.478v15.805c0 2.108-1.054 3.161-3.161 3.161s-3.161-1.053-3.161-3.16v-37.902c0-2.107 1.054-3.16 3.16-3.16 2.108 0 3.162 1.053 3.162 3.16v15.805h14.478l17.89-17.86c1.476-1.495 2.961-1.495 4.458 0 1.496 1.497 1.496 2.983 0 4.458l-16.469 16.532 16.469 16.564Z" fill="#20404a" fill-rule="evenodd" data-name="Path 124"/></g></svg>